PathFileType	4	(X/Y/Z)	/Users/niels/Desktop/University/Third Semester/Perception and Action/Exam/Gymnastics Motion Tracking/Code for Gym Tracking/Analyzed Data/Webcam_Backflip/id11_1_baseline_Sports2D/id11_1_baseline_Sports2D_px_person00.trc
DataRate	CameraRate	NumFrames	NumMarkers	Units	OrigDataRate	OrigDataStartFrame	OrigNumFrames
29.714285714285715	29.714285714285715	10	22	m	29.714285714285715	0	105
Frame#	Time	Hip			RHip			RKnee			RAnkle			RBigToe			RSmallToe			RHeel			LHip			LKnee			LAnkle			LBigToe			LSmallToe			LHeel			Neck			Head			Nose			RShoulder			RElbow			RWrist			LShoulder			LElbow			LWrist		
		X1	Y1	Z1	X2	Y2	Z2	X3	Y3	Z3	X4	Y4	Z4	X5	Y5	Z5	X6	Y6	Z6	X7	Y7	Z7	X8	Y8	Z8	X9	Y9	Z9	X10	Y10	Z10	X11	Y11	Z11	X12	Y12	Z12	X13	Y13	Z13	X14	Y14	Z14	X15	Y15	Z15	X16	Y16	Z16	X17	Y17	Z17	X18	Y18	Z18	X19	Y19	Z19	X20	Y20	Z20	X21	Y21	Z21	X22	Y22	Z22
0	0.0	0.9185527658626604	-0.5901707811983796	0.0	0.922983434089465	-0.5923875198376286	0.0	0.9517191344074752	-0.8117241544876195	0.0	0.9406805385258601	-1.0288567567423634	0.0	1.0359459207420632	-1.04435337064247	0.0	1.0160216364302992	-1.0576498157582062	0.0	0.9207671828620517	-1.0554437332963282	0.0	0.9207516502331141	-0.590169646018548	0.0	0.9406873238437672	-0.7939933067870756	0.0	0.8941514762089368	-0.9778911396985257	0.0	0.9716650610918972	-1.0000301944069288	0.0	0.965033079709164	-0.9911708490680914	0.0	0.8697767273192012	-0.9889612978473606	0.0	0.9561878033303238	-0.2866268880481391	0.0	0.9849911849008995	-0.15369807152266782	0.0	1.0049369299327857	-0.22903028206764378	0.0	0.940685722423486	-0.33759129082119954	0.0	0.9893661389483095	-0.494861339880058	0.0	1.0800649278118737	-0.6123117867359013	0.0	0.9473106689006366	-0.3265148751955171	0.0	0.9849223859886933	-0.4727400780219777	0.0	0.9782200422089602	-0.5813242629621451	0.0
1	0.03365384615384615	0.9187190326899026	-0.5902711761866204	0.0	0.9202770473874523	-0.5922037469615062	0.0	0.9487046929892603	-0.8104154165179454	0.0	0.9410579242052697	-1.0273200481133358	0.0	1.0335705317453796	-1.0470730196966014	0.0	1.012781435005471	-1.0598817704805292	0.0	0.9219248620456209	-1.0543775838137381	0.0	0.9254788030241788	-0.590692549852856	0.0	0.9368206350894632	-0.7950769603649437	0.0	0.8924139719678812	-0.9800659556660553	0.0	0.9689899655729128	-1.0019527577778597	0.0	0.9623256119181883	-0.9932606882141205	0.0	0.869100233739215	-0.9942240964007705	0.0	0.9572617472489672	-0.2892007189453556	0.0	0.983448333353628	-0.15726748004044439	0.0	1.0009507449190862	-0.23116174357294864	0.0	0.9349403637986958	-0.3408339253283249	0.0	0.9848768111738391	-0.4952159772284736	0.0	1.0809369844504566	-0.6063007383160329	0.0	0.9548245405065654	-0.331134326405755	0.0	0.9843486160432086	-0.4744028022561938	0.0	0.978638047040399	-0.5771835225703527	0.0
2	0.0673076923076923	0.9185782926999642	-0.5903129997842084	0.0	0.9172464729734637	-0.5919726404011594	0.0	0.945663396251063	-0.8090918498607039	0.0	0.941213540323591	-1.025769603701822	0.0	1.0314946580168307	-1.048874834593512	0.0	1.0100355380691648	-1.0611419507379565	0.0	0.9228233669727408	-1.053033836867923	0.0	0.9297161505330115	-0.5912042081967187	0.0	0.9328597870914943	-0.7959322348565553	0.0	0.8906926318039172	-0.9823885127390226	0.0	0.9665413350950254	-1.0038442340847107	0.0	0.9601593145115104	-0.9952964553886859	0.0	0.868278964982939	-0.9995642429610718	0.0	0.9580742346857898	-0.29176891540536765	0.0	0.9820151681540398	-0.16087183050964898	0.0	0.9973113029780432	-0.23340537403707137	0.0	0.9291599634696053	-0.34355823162902943	0.0	0.9799189938380942	-0.49567335425603015	0.0	1.0802473940026007	-0.6009943840657159	0.0	0.9617660173315942	-0.3354973310693076	0.0	0.9837060744194012	-0.4761635762769168	0.0	0.9793286309378252	-0.5746192944377652	0.0
3	0.10096153846153846	0.9178665550213848	-0.5903199582359405	0.0	0.9137149690003753	-0.5916532080053608	0.0	0.9426457726715977	-0.8077127864818046	0.0	0.9408533024719178	-1.0240904077391388	0.0	1.030012776487179	-1.0491977901393226	0.0	1.0082609136608691	-1.0608737365012795	0.0	0.9232050514298428	-1.051233141014322	0.0	0.9329082003177386	-0.5917142807127277	0.0	0.9287524183445653	-0.796398250826194	0.0	0.8890068240609992	-0.9848682584083318	0.0	0.9644867098601856	-1.0055294437166127	0.0	0.9587847980934568	-0.9970934743769589	0.0	0.8672608044482404	-1.0048691010785835	0.0	0.9584116639576236	-0.29436067263164833	0.0	0.9808543055376394	-0.16460298166795334	0.0	0.9943269028417864	-0.23587374802511119	0.0	0.9234469209329395	-0.34551811167652735	0.0	0.9741336062671088	-0.4963915980305964	0.0	1.076906858918926	-0.5971666067313622	0.0	0.9676642919200871	-0.3394123872838787	0.0	0.9830595427521953	-0.47802753463174597	0.0	0.9807469117501398	-0.5743314731408171	0.0
4	0.1346153846153846	0.916463096006637	-0.5903765275226553	0.0	0.9097344040034447	-0.591268174681976	0.0	0.9397536780249319	-0.8062010257497074	0.0	0.9397144544735934	-1.0220680832709363	0.0	1.0291436009311896	-1.0479887335057698	0.0	1.0075263111873358	-1.0590794305008642	0.0	0.9228338320460393	-1.048871136633075	0.0	0.9346588677469712	-0.5922539051267312	0.0	0.9244640401297024	-0.796441101134286	0.0	0.8873829199937168	-0.9873172442486311	0.0	0.9629705449187183	-1.006912888918065	0.0	0.9579664400269019	-0.9985517750127959	0.0	0.8660647097094555	-1.0098249628914102	0.0	0.9581732243341234	-0.29699814885450926	0.0	0.9801311593631691	-0.16853076779905105	0.0	0.9921525085262741	-0.23860452916530905	0.0	0.9180470117322271	-0.34679320711987216	0.0	0.9673668609743817	-0.4974283766958822	0.0	1.0705130961708034	-0.5954839165654758	0.0	0.9722119590792646	-0.34277882840430635	0.0	0.9827357739528543	-0.47987970309276406	0.0	0.9837572088926337	-0.5760736124390847	0.0
5	0.16826923076923075	0.9144570544612284	-0.5905122204747594	0.0	0.9055305049115083	-0.5908988444700394	0.0	0.937065664781429	-0.8044255013388187	0.0	0.9375425782341588	-1.0194949333819026	0.0	1.0282763299860829	-1.0456896343232802	0.0	1.00700767894575	-1.056252648003879	0.0	0.9212797363061385	-1.0459188813466278	0.0	0.934996762143055	-0.5928204798503683	0.0	0.9201168588078171	-0.7960831996160066	0.0	0.8859063345160488	-0.9893324760485253	0.0	0.9622375898867238	-1.0081755821616099	0.0	0.9573125653589721	-0.99986382512299	0.0	0.8647801978442883	-1.0138839701344236	0.0	0.9574391651420083	-0.29961508655769314	0.0	0.9799180869323922	-0.1725847184217263	0.0	0.9907149317747236	-0.24151768046360855	0.0	0.9131938898317816	-0.3475826382252162	0.0	0.9595742950038132	-0.4985946954961237	0.0	1.0609654392680112	-0.5962319959309395	0.0	0.975430950011654	-0.345589352472942	0.0	0.9833145821157792	-0.48160236879559953	0.0	0.9895301466491564	-0.5792835411920297	0.0
6	0.20192307692307693	0.9121321875501709	-0.5906707954641167	0.0	0.9014044272806477	-0.5906309626626972	0.0	0.9345972292493319	-0.8023113170173479	0.0	0.9340151704631066	-1.0163720290864617	0.0	1.026379131561751	-1.0430716639446191	0.0	1.0052830876622514	-1.0531802401960546	0.0	0.9178578989484029	-1.0425478895392073	0.0	0.9343733919926284	-0.5933597449972631	0.0	0.9161585199605046	-0.7953313187231085	0.0	0.884747165812287	-0.9905058121459878	0.0	0.9626526311868765	-1.0096221585868261	0.0	0.9569326076405144	-1.0013555198159152	0.0	0.8636091156302168	-1.0165061312158985	0.0	0.9564536012330032	-0.302043377606661	0.0	0.9801455360263835	-0.17652800958105166	0.0	0.9897766985149	-0.24444103523740648	0.0	0.9089862069232083	-0.34804865243398303	0.0	0.9507510073463113	-0.4995734975671998	0.0	1.0481454599350033	-0.5991527580684229	0.0	0.9776987024128287	-0.34793409120779056	0.0	0.9852240184801638	-0.48322894978635567	0.0	0.9986436620221201	-0.5834973382852552	0.0
7	0.23557692307692307	0.9098484607572261	-0.5908349348088607	0.0	0.8976742569946197	-0.5905402598616697	0.0	0.9322967100325689	-0.7999732073934787	0.0	0.9287731672590147	-1.0129402369595688	0.0	1.022544349278921	-1.0408312098149315	0.0	1.001140137524857	-1.050521885628624	0.0	0.9119378303868065	-1.0391089381635812	0.0	0.9333580146073573	-0.5938359521441435	0.0	0.913251562057247	-0.7942294032296044	0.0	0.8841115752395075	-0.9907011521041731	0.0	0.9644611542274766	-1.0114283948866334	0.0	0.9574319597458835	-1.0031853314571688	0.0	0.8628545260661077	-1.0176097829745523	0.0	0.9555197965507803	-0.30408873290897714	0.0	0.9806451071057207	-0.18005925344095539	0.0	0.9890771491871466	-0.24710980072498492	0.0	0.9054268800097006	-0.34833959031794304	0.0	0.9409160436289742	-0.5001424775248048	0.0	1.0317659840926912	-0.603518365319379	0.0	0.9794195152084985	-0.349963706894013	0.0	0.9880945517317268	-0.485009355830856	0.0	1.009936089824437	-0.5883628558422732	0.0
8	0.2692307692307692	0.9079143040278522	-0.591093382595718	0.0	0.8946662522944845	-0.5906830776670119	0.0	0.9300465283070802	-0.7976406875622702	0.0	0.9216602454639062	-1.0094765103137344	0.0	1.0163504936231833	-1.0392231930081037	0.0	0.9941284039089883	-1.0484659930818345	0.0	0.903423728214432	-1.035905440648277	0.0	0.9323319221843621	-0.5942540897751657	0.0	0.9119471777094019	-0.7928927699200297	0.0	0.8841712667520777	-0.9900206343103221	0.0	0.9675067168030281	-1.013529712362389	0.0	0.959149398955918	-1.0052131225259617	0.0	0.862823125871228	-1.0175330184496716	0.0	0.9548718326118003	-0.3056281124105476	0.0	0.9812484489025182	-0.18295499172347224	0.0	0.9884654545174545	-0.2492317992370802	0.0	0.9025423900536671	-0.34858735509304184	0.0	0.9301325281202707	-0.5002317617672639	0.0	1.0113815978325478	-0.6084070517519428	0.0	0.9807180275661798	-0.3517697880815503	0.0	0.9906686402290431	-0.48725994277480555	0.0	1.0206561004870187	-0.5936252416386184	0.0
9	0.30288461538461536	0.9065888209058557	-0.5915710212894886	0.0	0.8927475098681321	-0.5910973186882502	0.0	0.9275885667251179	-0.795533554466427	0.0	0.9130312191144524	-1.0061568647917571	0.0	1.0079790620653688	-1.0380623774611362	0.0	0.9846873894913922	-1.0468220209577204	0.0	0.8930792189176932	-1.0330485513967684	0.0	0.9314705490221673	-0.5946330085852551	0.0	0.9124622984503484	-0.7914690306230135	0.0	0.884984970093044	-0.9885934186075193	0.0	0.9711999201185444	-1.0156378259135466	0.0	0.9617008254860794	-1.0070524934964311	0.0	0.8636856984180341	-1.0165878121463447	0.0	0.9545834113518926	-0.306657551391087	0.0	0.9818525311393047	-0.18512847311956948	0.0	0.9879521476209993	-0.2506714387870114	0.0	0.900427728193706	-0.34883436258639733	0.0	0.9185263625716112	-0.4997628986471773	0.0	0.9866258568643576	-0.6129620722770838	0.0	0.9814316469629933	-0.3533143976148613	0.0	0.9913883519447301	-0.4900657691175307	0.0	1.0278523455930269	-0.5990685032201506	0.0
